<svg viewBox="0 0 176 28" xmlns="http://www.w3.org/2000/svg" fill-rule="evenodd" clip-rule="evenodd" stroke-linejoin="round" stroke-miterlimit="2"><path d="M141.093 28h30.903A3.999 3.999 0 00176 23.998v-8.272S163.672 24.205 141.093 28z" fill="#ed8b3d"/><path d="M159.416 13.487l1.506-3.63h1.175L159.69 15.4h-.582l-2.361-5.543h1.184l1.485 3.63zm-15.044-1.558c-.653-.232-.844-.387-.844-.679 0-.34.341-.598.811-.598.325 0 .593.127.878.435l.565-.719a2.466 2.466 0 00-1.635-.601c-.985 0-1.736.666-1.736 1.546 0 .747.349 1.126 1.368 1.486.426.144.642.242.752.309a.638.638 0 01.325.557c0 .44-.359.763-.844.763-.516 0-.934-.251-1.185-.722l-.7.658c.501.712 1.101 1.03 1.928 1.03 1.127 0 1.921-.733 1.921-1.776 0-.86-.368-1.25-1.604-1.689zm1.946.633c0 1.59 1.285 2.822 2.94 2.822.467 0 .867-.09 1.359-.315v-1.243c-.435.425-.817.592-1.311.592-1.094 0-1.868-.768-1.868-1.864 0-1.035.799-1.856 1.82-1.856.515 0 .909.177 1.359.608v-1.241c-.476-.233-.866-.33-1.337-.33-1.645 0-2.962 1.256-2.962 2.827zm-9.175-2.705c1.76 0 2.988 1.109 2.988 2.705a2.68 2.68 0 01-1.011 2.076c-.534.431-1.143.626-1.987.626h-1.587V9.857h1.597zm4.572 5.407h-1.083V9.857h1.083v5.407zm23.955-5.407v.916h-1.994v1.199h1.918v.916h-1.918v1.459h1.994v.917h-3.08V9.857h3.08zm2.33 0c1.254 0 1.969.583 1.969 1.595 0 .828-.449 1.37-1.268 1.533l1.752 2.279h-1.336l-1.5-2.174h-.141v2.174h-1.089V9.857H168zm-31.075 4.49c.703 0 1.142-.131 1.488-.43.374-.323.598-.842.598-1.363 0-.518-.224-1.02-.598-1.345-.362-.314-.785-.436-1.488-.436h-.292v3.574h.292zm30.866-2.004c.696 0 1.06-.291 1.06-.832 0-.527-.364-.803-1.042-.803h-.333v1.635h.315z"/><ellipse cx="153.997" cy="12.58" rx="2.903" ry="2.813" fill="#ed8b3d"/><path d="M102.907 15.429l.736-.806h3.218c.372 0 .983.04 1.257.308v-.308h2.875c.27 0 .856.055 1.203.308v-.308h4.359v.308c.216-.21.675-.308 1.065-.308h2.441v.308c.256-.187.618-.308 1.116-.308h1.65v.751h-1.776c-.936 0-1.279.576-1.279 1.124 0 1.194 1.044 1.139 1.881 1.168.156 0 .25.026.315.084a.311.311 0 01.109.249.337.337 0 01-.106.247c-.072.07-.191.093-.361.093h-1.715v.809h1.722c.572 0 .994-.162 1.21-.482v.981c-.357.174-.826.242-1.307.242h-2.311v-.337c-.268.218-.751.337-1.213.337h-7.285v-1.217c0-.149-.014-.155-.162-.155h-.116v1.372h-2.398v-1.421c-.401.176-.856.191-1.242.185h-.285v1.239l-2.908-.002-.714-.819-.759.819h-4.716v-5.267h4.806l.69.806zm16.45.748v-.803h-1.788c-.935 0-1.275.576-1.275 1.124 0 1.194 1.045 1.139 1.878 1.168.156 0 .25.026.318.084a.324.324 0 01.109.249.337.337 0 01-.106.247c-.075.07-.195.093-.364.093h-1.73v.809h1.737c.9 0 1.401-.379 1.401-1.191 0-.388-.093-.617-.267-.799-.202-.207-.534-.292-1.018-.304l-.48-.013c-.152 0-.253-.01-.347-.043a.288.288 0 01-.195-.281c0-.12.036-.21.134-.271.089-.062.195-.068.357-.069h1.636zm-7.01 2.971V18.4c-.004-.333-.022-.505-.148-.689a.969.969 0 00-.436-.317c.234-.094.631-.401.632-1.004 0-.43-.177-.666-.459-.838-.293-.158-.621-.178-1.073-.178h-2.059v3.774h.896V17.77h.953c.326 0 .524.032.655.167.165.176.144.512.144.739v.472h.895zm3.518-2.993v-.781h-2.976v3.774h2.976v-.783l-2.088-.003v-.751h2.037v-.77h-2.037v-.686h2.088zm-9.032 1.727c.779 0 1.553-.216 1.553-1.265 0-1.045-.795-1.243-1.503-1.243h-2.849l-1.135 1.237-1.097-1.237h-3.586v3.774h3.532l1.141-1.249 1.098 1.249h1.733v-1.266h1.113zm-2.001.923l-1.369-1.537 1.369-1.489v3.026zm-3.536-.443h-2.192v-.751h1.958v-.77h-1.958v-.686h2.236l.975 1.1-1.019 1.107zm21.531-2.185v1.074c-.024-.032-.046-.064-.082-.093-.199-.207-.524-.292-1.012-.304l-.483-.013c-.149 0-.25-.01-.344-.043a.284.284 0 01-.195-.281c0-.12.036-.21.13-.272.091-.062.199-.068.361-.068h1.625zm-15.954.939h-1.153v-.961h1.163c.322 0 .545.132.545.462 0 .327-.213.499-.555.499zm3.911-.114H109.7v-.847h1.098c.159 0 .318.003.426.068.116.061.185.178.185.339a.409.409 0 01-.185.363c-.119.071-.267.077-.44.077zM94.806 8.753v-.622h2.727l.596 1.36.581-1.36h8.657c.394 0 .748.075 1.007.308v-.308h2.37v.308c.408-.227.913-.308 1.488-.308h3.434l.318.622v-.622h2.542l.347.622v-.622h2.478v5.263h-2.504l-.473-.796v.796h-3.123l-.34-.838h-.769l-.347.838h-1.621c-.636 0-1.119-.152-1.43-.32v.32h-3.853V12.2c0-.169-.03-.178-.131-.182h-.144l.004 1.376h-7.45v-.65l-.268.653h-1.556l-.268-.644v.641H94.08l-.342-.838h-.769l-.344.838h-1.524v-2.761l1.08-2.502h2.326l.299.622zm5.923 3.9V8.879h-1.484l-1.072 2.56-1.167-2.56H95.55v3.573l-1.516-3.573h-1.325l-1.597 3.774h.968l.347-.842h1.856l.343.842h1.814V9.695l1.296 2.958h.783l1.293-2.955.003 2.955h.914zm3.644-2.988v-.786h-2.979v3.774h2.979v-.781h-2.087v-.753h2.037v-.774h-2.037v-.68h2.087zm4.16 2.988v-.741c0-.337-.021-.505-.147-.693a1.046 1.046 0 00-.441-.318c.231-.093.628-.404.628-1.005 0-.421-.169-.667-.451-.836-.289-.168-.624-.181-1.08-.181h-2.051v3.774h.892V11.28h.957c.321 0 .52.029.65.162.162.181.141.508.141.735l.003.476h.899zm1.467 0V8.879h-.91v3.774h.91zm3.135-2.965v-.809h-.863c-.615 0-1.066.139-1.354.44-.384.405-.481.916-.481 1.476 0 .686.163 1.12.476 1.44.311.321.86.418 1.293.418h1.044l.336-.842h1.853l.347.842h1.816V9.821l1.69 2.832h1.264V8.88h-.914v2.628l-1.567-2.628h-1.358v3.569l-1.51-3.569h-1.336l-1.256 2.967h-.401c-.235 0-.484-.045-.621-.195-.166-.19-.246-.481-.246-.886 0-.395.105-.696.257-.854.177-.175.36-.224.686-.224h.845zm-19.174 1.337l-.61-1.505-.607 1.505h1.217zm21.174 0l-.617-1.505-.614 1.505h1.231zm-8.169-.522h-1.084v-.838h1.098c.156 0 .318.007.423.068.116.055.188.172.188.334 0 .165-.069.298-.184.359-.123.075-.268.077-.441.077z" fill="#0088d7"/><path d="M74.987 19.514v.061h-.127v.293h-.055v-.293h-.119v-.061h.301zm.26.253l.106-.253h.092v.354h-.064V19.6l-.098.23h-.069l-.098-.23v.268h-.066v-.354h.091l.106.253z" fill="#f79e1b" fill-rule="nonzero"/><ellipse cx="55.374" cy="14.225" rx="9.104" ry="9.105" fill="#eb221b"/><ellipse cx="66.626" cy="14.228" rx="9.104" ry="9.105" fill="#f79e1b"/><path d="M60.999 7.066a9.11 9.11 0 013.479 7.159 9.11 9.11 0 01-3.479 7.158h-.003a9.096 9.096 0 01-3.474-7.157 9.097 9.097 0 013.477-7.157l-.003-.003h.003z" fill="#ff5f00"/><path d="M21.547 9.772a5.534 5.534 0 00-2.026-.373c-2.235 0-3.808 1.208-3.821 2.938-.015 1.279 1.122 1.993 1.98 2.418.88.436 1.176.715 1.173 1.104-.006.597-.703.87-1.353.87-.905 0-1.386-.135-2.13-.467l-.291-.142-.316 1.993c.527.248 1.505.463 2.519.474 2.376 0 3.919-1.193 3.937-3.04.008-1.015-.594-1.784-1.899-2.419-.79-.413-1.275-.686-1.269-1.104 0-.37.409-.766 1.295-.766a3.918 3.918 0 011.692.342l.203.102.306-1.93zm5.8-.209l1.829 8.895h-2.098s-.207-1.023-.275-1.333l-2.896-.005c-.088.241-.475 1.338-.475 1.338h-2.375l3.358-8.157c.237-.581.643-.738 1.185-.738h1.747zm-14.001 8.892h-2.261L12.5 9.554h2.261l-1.415 8.901zm-1.761-8.894l-3.561 8.885-2.393.001-2.024-7.784 2.353.017.779 3.716.237 1.234 2.213-6.069h2.396zm14.849 5.738c-.089-.445-.523-2.569-.523-2.569l-.152-.768c-.114.334-.314.873-.301.849 0 0-.713 1.977-.9 2.488h1.876z" fill="#33468d"/><path d="M4.922 9.555H1.276l-.03.185c2.837.737 4.714 2.517 5.493 4.656l-.792-4.09c-.137-.564-.534-.731-1.025-.751z" fill="#f2a83a"/></svg>