<svg viewBox="0 0 208 213" xmlns="http://www.w3.org/2000/svg" fill-rule="evenodd" clip-rule="evenodd" stroke-linejoin="round" stroke-miterlimit="2"><path d="M170.238 20.891a4.985 4.985 0 00-.614-7.02 4.985 4.985 0 00-7.02.614l-17.298 20.614a4.986 4.986 0 00.614 7.021 4.986 4.986 0 007.021-.614l17.297-20.615zm-102.49-.013a4.986 4.986 0 01.614-7.021 4.987 4.987 0 017.021.615L92.68 35.086a4.986 4.986 0 01-.614 7.021 4.986 4.986 0 01-7.021-.615L67.748 20.878zm56.129-15.895A4.986 4.986 0 00118.894 0a4.986 4.986 0 00-4.983 4.983v26.91a4.986 4.986 0 004.983 4.984 4.986 4.986 0 004.983-4.984V4.983z" fill="#00bff3"/><path d="M95.727 180.723l1.047 3.427c1.862 6.312.829 13.303-2.752 18.738-6.7 10.169-21.999 12.924-31.766 5.983-9.734-6.917-12.09-21.802-5.304-31.302.302-.422.346-.505 1.034-1.337l1.52-1.803-1.522-1.801c-6.509-7.872-6.696-19.554-.852-27.579l1-1.346-42.243-96.682H6.122a6.393 6.393 0 01-4.561-1.954C-2.103 41.222 1.225 34.58 5.95 34.43c4.727-.09 9.456-.068 14.183-.001 2.382.057 4.62 1.55 5.626 3.721 3.256 7.375 6.452 14.776 9.678 22.164l2.53-1.647s2.244-1.152 3.926-1.191c25.499-.355 51.003-.004 76.505-.004 25.495-.001 50.988-.016 76.531.003h-.019c9.565.274 15.544 10.711 12.031 19.28-9.09 21.137-18.124 42.297-27.186 63.446-2.1 4.683-6.692 7.948-11.721 8.249-.002 0-.01.074-1.522 0H75.246c-3.284.021-6.434 1.728-8.219 4.44-4.19 6.368 1.198 15.109 8.101 15.239 30.877.197 61.757-.309 92.633.003 14.666.24 25.076 15.654 21.273 28.715-2.902 9.969-13.442 17.041-23.719 16.063-13.436-1.28-23.001-15.911-19.425-28.568.353-1.209.727-2.412 1.091-3.619H95.727zm-20.346.009c6.506.123 11.789 7.778 8.737 14.108-3.491 7.241-17.262 6.744-18.612-2.893-.782-5.575 3.831-11.254 9.875-11.215zm92.217 0c6.507.123 11.791 7.778 8.738 14.108-3.492 7.241-17.262 6.744-18.612-2.893-.782-5.576 3.831-11.254 9.874-11.215zm.321-44.875c-30.945 0-61.891-.117-92.836.001-1.088.012-2.36.139-2.36.139l-2.003.225-28.903-66.154h154.294l-28.192 65.789z" fill="#a8a8a8"/></svg>