<svg xmlns="http://www.w3.org/2000/svg" xmlns:xlink="http://www.w3.org/1999/xlink"><symbol id="bust-solid" viewBox="0 0 28 28"><path d="M14 1.953c3.4 0 6.17 3.358 6.17 7.491 0 2.909-1.374 5.428-3.374 6.668a21.49 21.49 0 013.695.749c.227.059.478.13.767.232l.087.033c1.566.574 3.781 1.883 4.777 4.727.322.921.527 1.987.527 3.258 0 .517-.668.853-1.179.853l-3.898.029-7.572.049V1.953zm-.002 0c-3.4 0-6.171 3.358-6.171 7.491 0 2.909 1.375 5.428 3.374 6.668a21.51 21.51 0 00-3.695.749c-.227.059-.477.13-.766.232-.03.011-.058.023-.088.033-1.566.574-3.781 1.883-4.777 4.727-.322.921-.527 1.987-.527 3.258 0 .517.669.853 1.18.853l3.897.029 7.573.049V1.953z"/></symbol><symbol id="bust" viewBox="0 0 28 28"><path d="M19.473 16.008c2.798.124 5.655 2.401 6.657 5.386.638 1.897.89 4.508-.667 4.57-7.622.05-15.246.159-22.865-.001-2.169-.137-1.225-4.956 1.009-7.38 1.301-1.412 3.142-2.53 5.013-2.575.122-.002.245.014.362.049 1.198.36.998 2.13-.72 2.505-2.281.543-4.042 2.6-4.35 4.948h20.269c-.279-2.45-2.216-4.656-4.74-5.023-.588-.086-1.134-.531-1.188-1.126-.064-.699.413-1.356 1.22-1.353zM13.999 1.953c3.386 0 6.135 3.274 6.135 7.308 0 4.032-2.749 7.306-6.135 7.306-3.385 0-6.134-3.274-6.134-7.306 0-4.034 2.749-7.308 6.134-7.308zm-.001 2.344c2.104 0 3.811 2.239 3.811 4.997 0 2.759-1.707 4.998-3.811 4.998-2.105 0-3.812-2.239-3.812-4.998 0-2.758 1.707-4.997 3.812-4.997z"/></symbol><symbol id="caret-down" viewBox="0 0 28 28"><path d="M12.858 18.814a1.769 1.769 0 01-.097-.097L6.46 12.548a1.495 1.495 0 01.033-2.188l.007-.007a1.707 1.707 0 012.321.039L14 15.462l5.179-5.07a1.707 1.707 0 012.321-.039l.007.007c.644.595.659 1.575.033 2.188l-6.301 6.169A1.697 1.697 0 0114 19.25c-.411 0-.822-.145-1.142-.436z"/></symbol><symbol id="caret-up" viewBox="0 0 28 28"><path d="M15.142 9.186c.039.036.068.066.097.097l6.301 6.169a1.495 1.495 0 01-.033 2.188l-.007.007a1.707 1.707 0 01-2.321-.039L14 12.538l-5.179 5.07a1.707 1.707 0 01-2.321.039l-.007-.007a1.495 1.495 0 01-.033-2.188l6.301-6.169A1.697 1.697 0 0114 8.75c.411 0 .822.145 1.142.436z"/></symbol><symbol id="cart" viewBox="0 0 28 28"><path d="M13.357 21.809a3.274 3.274 0 11-6.404.966c0-.808.293-1.548.78-2.119a3.25 3.25 0 01-.78-2.118c0-.734.242-1.412.652-1.958L2.222 4.26H1.153a1.154 1.154 0 010-2.307h1.824c.476 0 .884.289 1.061.7l1.109 2.54a1.31 1.31 0 01.721-.215h20.07a2.113 2.113 0 011.898 2.928l-.03.075-3.559 8.306a2.102 2.102 0 01-.889 1.006 2.104 2.104 0 01-.943.28h-.001a1.945 1.945 0 01-.216 0h-11.97a.966.966 0 000 1.929h12.104a3.276 3.276 0 013.274 3.273 3.274 3.274 0 11-6.404-.966h-5.845zm-3.129.001a.965.965 0 11-.001 1.93.965.965 0 01.001-1.93zm12.104 0a.965.965 0 11-.001 1.93.965.965 0 01.001-1.93zm3.263-14.525H6.339l3.497 8.004c.129-.015.259-.023.392-.023h11.947l3.42-7.981z"/></symbol><symbol id="cross-small" viewBox="0 0 24 24"><path d="M11.97 10.757l3.478-3.479a.88.88 0 011.244 1.244L13.214 12l3.478 3.478a.88.88 0 01-1.244 1.243l-3.478-3.478-3.478 3.478a.88.88 0 01-1.243-1.243L10.727 12 7.249 8.522a.88.88 0 011.243-1.244l3.478 3.479z"/></symbol><symbol id="cross" viewBox="0 0 28 28"><path d="M25.5 23.097L4.903 2.5 2.5 4.903 23.097 25.5l2.403-2.403z"/><path d="M23.097 2.5L2.5 23.097 4.903 25.5 25.5 4.903 23.097 2.5z"/></symbol><symbol id="dropdown-caret" viewBox="0 0 24 24"><path d="M2.976 10H12l-4.569 4-4.455-4z"/></symbol><symbol id="facebook" viewBox="0 0 40 40"><path d="M40 20.014C40 8.955 31.046 0 20 0 8.953 0 0 8.955 0 20.014c0 9.997 7.312 18.274 16.875 19.772V25.802h-5.078v-5.788h5.078v-4.411c0-5.009 2.984-7.781 7.554-7.781 2.188 0 4.477.384 4.477.384v4.928h-2.523c-2.484 0-3.259 1.548-3.259 3.126v3.754h5.548l-.887 5.788h-4.661v13.984C32.688 38.288 40 30.011 40 20.014z" fill-rule="nonzero"/></symbol><symbol id="hamburger" viewBox="0 0 28 28"><path d="M27.993 19.832v3.266H0v-3.266h27.993zm0-7.465v3.266H0v-3.266h27.993zm0-7.465v3.266H0V4.902h27.993z"/></symbol><symbol id="instagram" viewBox="0 0 40 40"><path d="M20 0C8.954 0 0 8.95 0 20s8.954 20 20 20 20-8.95 20-20S31.046 0 20 0zm-.167 8h.002-.004.002c-3.257 0-3.666.01-4.946.07-1.277.06-2.149.26-2.912.56-.79.31-1.459.72-2.126 1.38a5.91 5.91 0 00-1.385 2.13c-.298.76-.5 1.63-.558 2.91-.057 1.28-.072 1.69-.072 4.95 0 3.26.015 3.67.073 4.95.058 1.27.261 2.15.557 2.91.307.79.717 1.46 1.384 2.12a5.904 5.904 0 002.125 1.39c.764.3 1.636.5 2.913.56 1.28.06 1.689.07 4.948.07 3.259 0 3.667-.01 4.947-.07 1.277-.06 2.15-.26 2.914-.56a5.9 5.9 0 002.124-1.39 5.817 5.817 0 001.385-2.12c.295-.76.497-1.64.557-2.91.058-1.28.073-1.69.073-4.95 0-3.26-.015-3.67-.073-4.95-.06-1.28-.262-2.15-.557-2.91a5.937 5.937 0 00-1.385-2.13 6.008 6.008 0 00-2.125-1.38c-.765-.3-1.638-.5-2.915-.56-1.28-.06-1.688-.07-4.946-.07zm-.907 2.16h1.077c3.204 0 3.584.01 4.849.07 1.17.05 1.805.25 2.228.41.56.22.96.48 1.379.9.42.42.68.82.898 1.38.165.42.36 1.06.414 2.23.057 1.26.07 1.64.07 4.85 0 3.2-.013 3.58-.07 4.84-.054 1.17-.249 1.81-.414 2.23-.217.56-.478.96-.898 1.38-.42.42-.818.68-1.379.9-.422.16-1.058.36-2.228.41-1.265.06-1.645.07-4.849.07s-3.584-.01-4.849-.07c-1.17-.05-1.805-.25-2.229-.41-.56-.22-.96-.48-1.38-.9-.42-.42-.68-.82-.898-1.38-.164-.42-.36-1.06-.413-2.23-.057-1.26-.069-1.64-.069-4.85 0-3.2.012-3.58.069-4.84.054-1.17.249-1.81.413-2.23.218-.56.478-.96.898-1.38.42-.42.82-.68 1.38-.9.423-.17 1.059-.36 2.229-.41 1.107-.05 1.536-.07 3.772-.07zM13.84 20a6.162 6.162 0 0112.324 0 6.162 6.162 0 01-12.324 0zm5.994-4a4 4 0 110 8 4 4 0 010-8zm6.573-3.84a1.435 1.435 0 100 2.87c.795 0 1.44-.64 1.44-1.44 0-.79-.645-1.44-1.44-1.44v.01z"/></symbol><symbol id="linkedin" viewBox="0 0 40 40"><path d="M20 0C8.954 0 0 8.95 0 20s8.954 20 20 20 20-8.95 20-20S31.046 0 20 0zM9.602 16.56h4.533v13.62H9.602V16.56zm4.83-4.21c-.029-1.33-.984-2.35-2.534-2.35-1.551 0-2.565 1.02-2.565 2.35 0 1.31.984 2.36 2.506 2.36h.029c1.58 0 2.564-1.05 2.564-2.36zm10.829 3.9c2.982 0 5.218 1.94 5.218 6.13v7.8h-4.532V22.9c0-1.83-.656-3.08-2.297-3.08-1.252 0-1.998.84-2.325 1.65-.12.3-.15.7-.15 1.11v7.6h-4.533s.06-12.34 0-13.61h4.533v1.92c.602-.92 1.679-2.24 4.086-2.24z"/></symbol><symbol id="minus" viewBox="0 0 18 18"><path d="M1 7.873h16v2.254H1z"/></symbol><symbol id="plus" viewBox="0 0 18 18"><path d="M17 10.127h-6.873V17H7.873v-6.873H1V7.873h6.873V1h2.254v6.873H17v2.254z"/></symbol><symbol id="spacer" viewBox="0 0 28 28"/><symbol id="tag" viewBox="0 0 16 16"><path d="M14.572 8.61l-7.009 7.009a1.307 1.307 0 01-1.845 0l-.003.004L.381 10.29a1.306 1.306 0 010-1.844l6.968-6.968.025-.025a1.29 1.29 0 01.935-.393h5.54l.829-.829a.774.774 0 111.096 1.096l-.839.837c.007.041.01 5.57.01 5.57a1.292 1.292 0 01-.321.819l-.052.057zM8.409 2.608L1.65 9.368l4.987 4.985 6.759-6.759v-3.89l-1.059 1.059a2.008 2.008 0 01-3.274 2.184 2.007 2.007 0 012.175-3.276L12.3 2.608H8.409zm1.751 2.598a.458.458 0 01.645 0 .458.458 0 010 .645.456.456 0 01-.645-.645z"/></symbol><symbol id="toggle-check" viewBox="0 0 18 18"><path d="M7.853 13a.86.86 0 01-.608-.252L3.231 8.737a.86.86 0 011.216-1.214l3.406 3.403 5.7-5.695a.86.86 0 011.216 1.214l-6.308 6.303a.86.86 0 01-.608.252z"/></symbol><symbol id="toggle-radio" viewBox="0 0 18 18"><path d="M9 .5c4.691 0 8.5 3.809 8.5 8.5s-3.809 8.5-8.5 8.5S.5 13.691.5 9 4.309.5 9 .5zm0 3c3.036 0 5.5 2.464 5.5 5.5s-2.464 5.5-5.5 5.5A5.502 5.502 0 013.5 9c0-3.036 2.464-5.5 5.5-5.5z"/></symbol><symbol id="twitter" viewBox="0 0 40 40"><path d="M20 0C8.954 0 0 8.95 0 20s8.954 20 20 20 20-8.95 20-20S31.046 0 20 0zm.884 17.57l-.05-.78c-.15-2.02 1.163-3.86 3.24-4.58.765-.25 2.061-.28 2.909-.06.332.09.964.41 1.412.7l.815.52.897-.27c.499-.14 1.163-.38 1.463-.54.282-.14.531-.22.531-.17 0 .27-.615 1.19-1.13 1.7-.698.71-.498.78.914.3.848-.27.864-.27.698.03-.099.16-.615.72-1.163 1.22-.931.88-.981.97-.981 1.7 0 1.13-.565 3.48-1.13 4.77-1.047 2.42-3.29 4.91-5.534 6.17-3.157 1.76-7.362 2.2-10.902 1.17-1.18-.35-3.207-1.24-3.207-1.4 0-.04.615-.11 1.363-.12 1.562-.04 3.124-.45 4.454-1.18l.897-.51-1.03-.33c-1.463-.48-2.776-1.57-3.108-2.61-.1-.33-.067-.35.864-.35l.964-.01-.814-.37c-.964-.46-1.845-1.24-2.277-2.03-.316-.57-.715-2.02-.598-2.13.033-.05.382.05.781.17 1.146.4 1.296.31.631-.36-1.246-1.21-1.628-3-1.03-4.7l.282-.77 1.097 1.04c2.244 2.08 4.886 3.32 7.911 3.68l.831.1z"/></symbol></svg>