<svg viewBox="0 0 170 88" xmlns="http://www.w3.org/2000/svg" fill-rule="evenodd" clip-rule="evenodd" stroke-linejoin="round" stroke-miterlimit="2"><path d="M32.864 18.965L10.189 29.438l-.014 28.171h22.689V18.965zm126.249 38.644h-33.43V24.904h33.43v32.705zm-41.196 0H87.809v-.064H42.13V4.546h32.179v23.889h13.5v-3.839h30.108v33.013z" fill="#fff"/><path d="M28.994 57.422H14.661v-5.569l12.063-4.462 2.27 1.971v8.06zm121.261-9.559v9.559h-15.864v-9.559h15.864zm-67.189 9.209h-6.224V46.634h6.224v10.438zm78.203-28.99V38.67h-37.216V28.082h37.216zm-98.805 8.619H46.99v-4.545h18.433l-2.959 4.545zm55.593-14.983H87.439c1.32-7.13 7.676-12.543 15.309-12.543 7.632 0 13.988 5.413 15.309 12.543z" fill="#00bff3"/><circle cx="120.259" cy="33.098" r="6.213" fill="#ff715b"/><circle cx="163.206" cy="43.823" r="6.213" fill="#ff715b"/><circle cx="37.181" cy="33.098" r="6.213" fill="#ff715b"/><circle cx="6.795" cy="43.957" r="6.213" fill="#ff715b"/><circle cx="30.248" cy="45.127" r="4.04" fill="#ff715b"/><circle cx="45.721" cy="41.634" r="4.04" fill="#ff715b"/><circle cx="112.179" cy="41.693" r="4.04" fill="#ff715b"/><path d="M60.361 57.072h-6.223V46.634h6.223v10.438zm53.785-8.755v4.546H95.41v-4.546h18.736zM92.983 28.435l6.801 10.813-38.593.063 7.428-10.876h24.364zm64.01-8.67v5.292l-7.181-.021.023-7.864 7.158 2.593zM19.847 10.743c.576.942.907 2.047.907 3.23a6.215 6.215 0 01-6.213 6.213 6.214 6.214 0 01-5.451-3.233l10.757-6.21zM75.918 1.01v3.535H40.431V1.01h35.487z" fill="#ff715b" fill-rule="nonzero"/><circle cx="17.473" cy="72.257" r="1.833" fill="#f0c808"/><circle cx="152.442" cy="72.257" r="1.833" fill="#f0c808"/><circle cx="142.435" cy="52.863" r="1.222" fill="#f0c808"/><circle cx="120.571" cy="33.149" r="1.833" fill="#f0c808"/><circle cx="83.655" cy="51.862" r="1.222" fill="#f0c808"/><path d="M90.762 50.768h-2.797v-4.21h2.797v4.21zm-18.326 0h-2.797v-4.21h2.797v4.21zm81.772-4.639h-5.079v-5.173h5.079v5.173zm-18.501 0h-4.981v-5.173h4.981v5.173zm-35.608-6.966c0 1.749-1.497 3.17-3.343 3.17-1.447 0-2.68-.873-3.145-2.094-.464 1.221-1.698 2.094-3.145 2.094-1.56 0-2.871-1.015-3.24-2.386-.368 1.371-1.68 2.386-3.239 2.386-1.455 0-2.694-.883-3.153-2.113-.46 1.23-1.698 2.113-3.152 2.113-1.541 0-2.84-.991-3.226-2.336-.387 1.345-1.686 2.336-3.226 2.336-1.621 0-2.975-1.097-3.279-2.55-.305 1.453-1.657 2.55-3.278 2.55-1.846 0-3.344-1.421-3.344-3.17h38.77zm14.821-9.23v5.354l-17.727-.118-3.301-5.236h21.028zm-45.478-8.215H46.906v-4.545h22.536v4.545z" fill="#f0c808"/><circle cx="127.644" cy="45.322" r="4.04" fill="#ff715b"/><circle cx="37.319" cy="33.18" r="1.833" fill="#f0c808"/><circle cx="11.587" cy="9.175" r="1.222" fill="#f0c808"/><circle cx="27.985" cy="28.082" r="1.222" fill="#f0c808"/><circle cx="21.628" cy="53.537" r="1.222" fill="#f0c808"/><circle cx="60.866" cy="51.853" r="1.222" fill="#f0c808"/><circle cx="102.743" cy="16.431" r="2.938" fill="#f0c808"/><path d="M155.217 43.048v2.98a.497.497 0 01-.505.506h-6.055a.497.497 0 01-.504-.506v-2.98c0-1.684 1.581-3.064 3.532-3.064s3.532 1.38 3.532 3.064zm-1.009 2.492v-2.475c0-1.128-1.127-2.054-2.523-2.054-1.397 0-2.523.926-2.523 2.054v2.475h5.046zm-.303-14.933c1.329 0 2.405 1.279 2.405 2.845 0 1.565-1.076 2.845-2.405 2.845-1.328 0-2.405-1.28-2.405-2.845 0-1.566 1.077-2.845 2.405-2.845zm1.396 2.845c0-1.01-.623-1.835-1.396-1.835-.774 0-1.395.825-1.395 1.835 0 1.011.621 1.835 1.395 1.835.773 0 1.396-.824 1.396-1.835zm-6.962-3.317v6.566h1.009v-6.566h-1.009zm-4.879.472c1.329 0 2.406 1.279 2.406 2.845 0 1.565-1.077 2.846-2.406 2.846-1.328 0-2.404-1.281-2.404-2.846 0-1.566 1.076-2.845 2.404-2.845zm1.397 2.845c0-1.01-.622-1.835-1.397-1.835-.773 0-1.395.825-1.395 1.835 0 1.011.622 1.835 1.395 1.835.758 0 1.397-.824 1.397-1.835zm-8.392-2.845c1.328 0 2.404 1.279 2.404 2.845 0 1.565-1.076 2.846-2.404 2.846-1.33 0-2.406-1.281-2.406-2.846 0-1.566 1.076-2.845 2.406-2.845zm1.395 2.845c0-1.01-.622-1.835-1.395-1.835-.774 0-1.397.825-1.397 1.835 0 1.011.623 1.835 1.397 1.835.773 0 1.395-.824 1.395-1.835zm-7.282-3.317v6.566h1.009v-6.566h-1.009zm-12.11-8.216a.496.496 0 01-.504.506H87.691a.496.496 0 01-.504-.506c0-7.003 6.744-12.71 15.136-12.928V4.646a2.004 2.004 0 01-1.514-1.952c0-1.112.908-2.021 2.019-2.021 1.109 0 2.018.909 2.018 2.021 0 .943-.639 1.734-1.514 1.952v4.328c8.392.235 15.136 5.942 15.136 12.945zm-30.256-.504h29.231c-.32-6.347-6.761-11.431-14.615-11.431-7.855 0-14.296 5.084-14.616 11.431zm20.25-7.997v6.196h1.008v-6.196h-1.008zm-5.719-.32c1.951 0 3.532 1.498 3.532 3.333 0 1.835-1.581 3.334-3.532 3.334s-3.532-1.499-3.532-3.334 1.581-3.333 3.532-3.333zm2.523 3.333c0-1.279-1.126-2.322-2.523-2.322-1.395 0-2.523 1.043-2.523 2.322 0 1.281 1.128 2.324 2.523 2.324 1.397 0 2.523-1.043 2.523-2.324zm-9.082-3.013v6.196h1.009v-6.196h-1.009zm-4.709 34.479v1.515c0 .707-.353 1.33-.875 1.718a2.044 2.044 0 01-1.21.387c-.37 0-.706-.101-1.009-.253a2.106 2.106 0 01-1.094-1.852v-1.515a2.106 2.106 0 011.094-1.852 2.035 2.035 0 011.009-.253 2.1 2.1 0 012.018 1.516c.033.185.067.387.067.589zm-1.009 1.515v-1.515c0-.606-.487-1.095-1.093-1.095-.454 0-.841.286-1.01.674-.05.135-.084.27-.084.421v1.515c0 .151.034.286.084.421a1.092 1.092 0 002.103-.421zm-17.323-1.515v1.515a2.105 2.105 0 01-2.103 2.105 2.104 2.104 0 01-2.101-2.105v-1.515c0-1.162.941-2.105 2.101-2.105 1.161 0 2.103.943 2.103 2.105zm-1.009 1.515v-1.515a1.093 1.093 0 10-2.186 0v1.515a1.092 1.092 0 102.186 0zm21.881-12.711l-3.683-5.64h-.875l3.363 5.64h1.195zm-5.617-3.249c.353.791.319 1.548-.035 2.071-.218.319-.554.555-1.009.656-.151.035-.319.05-.487.05-1.531 0-3.028-1.346-3.263-2.777-.218-1.229.588-2.105 1.749-2.105.673 0 1.397.286 2.001.775a3.6 3.6 0 011.009 1.246.258.258 0 01.035.084zm-1.044 1.297c.202-.32.236-.792.052-1.281l-.052-.1c-.336-.757-1.109-1.313-1.799-1.313-.706 0-1.144.606-.958 1.413.201.893 1.076 1.701 1.917 1.701.387-.017.673-.169.84-.42zm-7.164-3.688l-.169 5.64h1.195l-.168-5.64h-.858zm-4.288.286c1.16 0 1.951.876 1.748 2.105-.235 1.314-1.514 2.576-2.909 2.762a2.787 2.787 0 01-.353.015c-.236 0-.455-.033-.656-.1-1.043-.337-1.43-1.482-.875-2.677.202-.454.505-.858.875-1.196a4.4 4.4 0 011.009-.656c.386-.151.791-.253 1.161-.253zm.739 2.105c.186-.808-.252-1.414-.958-1.414-.32 0-.656.118-.959.32-.37.253-.706.64-.892 1.094-.067.185-.117.353-.117.522v.269c.05.539.403.926.992.926h.017c.858-.017 1.715-.825 1.917-1.717zm-5.701-2.391l-3.683 5.64h1.193l3.348-5.64h-.858zM68.636 7.879c1.328 0 2.404 1.279 2.404 2.845 0 1.565-1.076 2.846-2.404 2.846-1.329 0-2.406-1.281-2.406-2.846 0-1.566 1.077-2.845 2.406-2.845zm1.395 2.845c0-1.01-.622-1.835-1.395-1.835s-1.396.825-1.396 1.835c0 1.011.623 1.835 1.396 1.835.773 0 1.395-.824 1.395-1.835zm-6.962-3.317v6.566h1.009V7.407h-1.009zm-4.878.472c1.33 0 2.406 1.279 2.406 2.845 0 1.565-1.076 2.846-2.406 2.846-1.328 0-2.404-1.281-2.404-2.846 0-1.566 1.076-2.845 2.404-2.845zm1.397 2.845c0-1.01-.623-1.835-1.397-1.835-.773 0-1.395.825-1.395 1.835 0 1.011.622 1.835 1.395 1.835.758 0 1.397-.824 1.397-1.835zm-8.392-2.845c1.328 0 2.404 1.279 2.404 2.845 0 1.565-1.076 2.846-2.404 2.846-1.33 0-2.406-1.281-2.406-2.846 0-1.566 1.076-2.845 2.406-2.845zm1.395 2.845c0-1.01-.622-1.835-1.395-1.835-.775 0-1.397.825-1.397 1.835 0 1.011.622 1.835 1.397 1.835.773 0 1.395-.824 1.395-1.835zm-7.283-3.317v6.566h1.009V7.407h-1.009zM1.144 43.991a5.658 5.658 0 005.078 5.623v-4.041a1.7 1.7 0 01-1.109-1.582c0-.926.756-1.683 1.681-1.683.926 0 1.682.757 1.682 1.683a1.7 1.7 0 01-1.11 1.582v4.041a5.765 5.765 0 002.54-.909c.37-.236.706-.522 1.009-.858a5.674 5.674 0 001.531-3.873 5.673 5.673 0 00-1.531-3.872 6.215 6.215 0 00-1.009-.859 5.656 5.656 0 00-3.112-.943c-3.11.034-5.65 2.577-5.65 5.691zm168.856 0a6.797 6.797 0 01-6.222 6.767v6.314h3.716c.286 0 .505.219.505.505v14.732a.496.496 0 01-.505.504h-12.53a2.595 2.595 0 01-2.523 2.038 2.575 2.575 0 01-2.573-2.577 2.586 2.586 0 012.573-2.575c1.262 0 2.321.909 2.54 2.121h12.009V58.083H3.01v13.72h11.925a2.597 2.597 0 012.54-2.121 2.575 2.575 0 012.573 2.575 2.586 2.586 0 01-2.573 2.577 2.595 2.595 0 01-2.523-2.038H2.506a.496.496 0 01-.505-.505V57.577c0-.286.219-.505.505-.505h3.716v-6.297C2.742 50.49 0 47.56 0 44.008c0-3.754 3.045-6.801 6.794-6.801 1.128 0 2.17.269 3.112.757v-7.627l-2.287 1.06c0 .069.017.136.017.22 0 1.111-.909 2.02-2.018 2.02a2.025 2.025 0 01-2.019-2.02c0-1.111.908-2.02 2.019-2.02.689 0 1.277.337 1.648.858l13.033-6.111-2.774-4.444a6.363 6.363 0 01-4.507.504 6.44 6.44 0 01-3.987-2.945.497.497 0 01.169-.691l4.608-2.795-1.665-2.677c-.169.052-.37.067-.555.067a2.183 2.183 0 01-2.187-2.188c0-1.212.976-2.188 2.187-2.188a2.182 2.182 0 011.447 3.822l1.631 2.642 4.793-2.878a.52.52 0 01.387-.051.48.48 0 01.303.235 6.497 6.497 0 01-1.767 8.604l2.826 4.545 13.051-6.111a2.325 2.325 0 01-.067-.488c0-1.112.909-2.021 2.018-2.021 1.11 0 2.018.909 2.018 2.021 0 1.111-.908 2.02-2.018 2.02a2.043 2.043 0 01-1.48-.639l-1.21.571v8.165a6.793 6.793 0 013.783-1.16c1.631 0 3.112.571 4.289 1.532V5.555h-1.681a.495.495 0 01-.505-.504V.505c0-.286.219-.505.505-.505h36.495c.286 0 .505.219.505.505v4.546a.495.495 0 01-.505.504h-1.682v22.527h12.614v-2.98c0-.286.218-.506.504-.506h30.022c.285 0 .504.22.504.506v1.515a6.753 6.753 0 012.186-.353 6.79 6.79 0 013.818 1.177h.807v-2.322c0-.287.219-.506.505-.506h23.63l-.068-7.07-1.329-.489a1.347 1.347 0 11-1.025-2.222c.706 0 1.295.556 1.345 1.263l11.1 4.091a1.342 1.342 0 011.009-.472c.74 0 1.346.606 1.346 1.348a1.35 1.35 0 01-1.346 1.346 1.349 1.349 0 01-1.345-1.279l-1.43-.522v4.006h1.598c.286 0 .505.219.505.506v2.322h2.018c.286 0 .505.236.505.506v9.327a6.699 6.699 0 011.009-.067c3.749-.017 6.794 3.03 6.794 6.784zm-6.222 5.623a5.658 5.658 0 005.078-5.623c0-3.114-2.54-5.657-5.65-5.657-.353 0-.69.033-1.009.085a5.914 5.914 0 00-2.153.875 2.852 2.852 0 00-.37.27 5.383 5.383 0 00-1.009 1.043 5.582 5.582 0 00-1.111 3.367 5.68 5.68 0 001.111 3.367c.286.387.622.741 1.009 1.044a5.596 5.596 0 002.96 1.213v-4.042a1.698 1.698 0 01-1.11-1.582c0-.926.757-1.684 1.682-1.684.925 0 1.681.758 1.681 1.684 0 .725-.47 1.346-1.109 1.582v4.058zm-1.144 7.458v-6.297a6.633 6.633 0 01-2.96-.976v7.273h2.96zm-1.446-19.579v-9.058h-35.623a6.805 6.805 0 011.8 4.613 6.784 6.784 0 01-2.489 5.252h34.612a7.501 7.501 0 011.7-.807zm-2.523 19.579v-8.03a6.791 6.791 0 01-2.254-5.051 6.74 6.74 0 011.866-4.68h-32.071v1.38a4.462 4.462 0 011.429-.218c.992 0 1.9.303 2.657.824.639-.791 1.698-1.313 2.892-1.313 1.951 0 3.532 1.38 3.532 3.064v2.98a.496.496 0 01-.504.506h-4.037a4.722 4.722 0 01-4.54 3.4 4.99 4.99 0 01-1.429-.219v7.357h7.82v-9.158c0-.287.219-.506.504-.506h15.81c.286 0 .504.219.504.506v9.158h7.821zm0-29.646v-1.82h-32.459v1.82h32.459zm-2.103-2.83V20.22l-6.307-2.324.068 6.7h6.239zm-2.657 47.661a1.464 1.464 0 10-2.924.002 1.464 1.464 0 002.924-.002zm-4.07-15.185v-8.653h-6.895v2.491a2.007 2.007 0 011.513 1.953c0 .944-.639 1.734-1.513 1.953v2.256h6.895zm-6.391-4.209a1.01 1.01 0 00-1.009-1.01 1.007 1.007 0 00-1.009 1.01 1.005 1.005 0 001.009 1.011 1.008 1.008 0 001.009-1.011zm-1.513 4.209v-2.256a2.005 2.005 0 01-1.514-1.953c0-.943.639-1.733 1.514-1.953v-2.491h-6.896v8.653h6.896zm-6.224-11.532v-2.475c0-1.128-1.126-2.054-2.523-2.054-.891 0-1.681.37-2.118.943a4.757 4.757 0 011.312 3.266c0 .102 0 .219-.017.32h3.346zm-4.49 0c.017-.101.017-.218.017-.32 0-.707-.203-1.363-.556-1.936a3.25 3.25 0 00-.907-.959 3.544 3.544 0 00-2.12-.691c-.505 0-.992.101-1.43.303-.37.169-.706.388-1.009.656a3.615 3.615 0 00-1.159 2.644c0 .791.269 1.532.706 2.121l.453-.454 1.009-1.011.169-.168a1.375 1.375 0 01-.084-.455c0-.74.606-1.346 1.345-1.346.74 0 1.346.606 1.346 1.346a1.35 1.35 0 01-1.346 1.348 1.29 1.29 0 01-.453-.084l-.977.976-.639.64c.202.134.421.269.639.37a3.69 3.69 0 001.43.303 3.588 3.588 0 003.33-2.256c.118-.336.202-.674.236-1.027zm-4.996-12.492a5.65 5.65 0 00-2.387-4.613 5.845 5.845 0 00-1.143-.639 5.59 5.59 0 00-2.12-.422c-.773 0-1.514.152-2.187.438a5.875 5.875 0 00-1.009.556 5.577 5.577 0 00-2.22 3.081 5.513 5.513 0 00-.235 1.582c0 .539.083 1.077.235 1.583a5.722 5.722 0 002.22 3.08 5.69 5.69 0 002.624.976v-3.265a2.357 2.357 0 01-1.615-1.414 2.211 2.211 0 01-.167-.876c0-.303.05-.606.167-.875a2.35 2.35 0 012.187-1.482c.925 0 1.715.522 2.103 1.297.167.32.251.673.251 1.06 0 .388-.084.741-.251 1.061a2.352 2.352 0 01-1.531 1.229v3.265a5.772 5.772 0 001.531-.37 5.723 5.723 0 001.009-.539 5.639 5.639 0 002.538-4.713zm-1.025 24.024v-7.794c-.151-.102-.303-.203-.454-.321l-3.599 3.603v4.512h4.053zm0-15.926v-1.835h-1.985a7.125 7.125 0 01-2.085.521v11.112l2.775-2.794a4.747 4.747 0 01-1.026-2.947 4.843 4.843 0 012.321-4.057zm-4.053-6.785c.454-.218.773-.69.773-1.212a1.35 1.35 0 00-1.345-1.347 1.35 1.35 0 00-1.345 1.347c0 .539.319 1.01.773 1.212.169.085.37.135.572.135a2.03 2.03 0 00.572-.135zm-1.144 22.711v-6.7l-1.615-1.616v8.316h1.615zm0-8.316v-8.924a7.384 7.384 0 01-1.615-.336v7.644l1.615 1.616zm-2.624 8.316v-9.326l-2.32-2.324a4.7 4.7 0 01-2.893.993 4.74 4.74 0 01-4.693-4.125h-8.914a3.591 3.591 0 01-1.799.489c-.471 0-.925-.101-1.346-.27v4.799h19.24c.286 0 .505.219.505.505v5.555a.496.496 0 01-.505.506H95.41v3.198h21.965zm0-10.943v-7.071a7.002 7.002 0 01-2.943-3.064H98.304l1.899 2.929c.069.085.085.186.085.303v.052c0 .757-.235 1.447-.656 2.019h7.787c.201-2.424 2.237-4.343 4.708-4.343a4.732 4.732 0 013.701 7.677l1.547 1.498zm0-19.075v-1.448H88.363v2.476h4.542a.48.48 0 01.42.235l.723 1.111h20.602c.068 0 .119.017.169.034a6.634 6.634 0 012.556-2.408zm-2.32 16.751a3.566 3.566 0 00.706-2.121 3.587 3.587 0 00-3.582-3.585 3.59 3.59 0 00-3.566 3.198c-.016.135-.016.27-.016.405 0 .201.016.42.05.606a3.595 3.595 0 003.532 2.979 3.54 3.54 0 002.068-.673l-1.615-1.616a1.326 1.326 0 01-1.664-.69 1.309 1.309 0 01-.134-.573c0-.152.016-.303.067-.438a1.35 1.35 0 011.278-.909 1.35 1.35 0 011.345 1.347c0 .151-.033.32-.084.454l1.615 1.616zm-.909 9.058v-4.546H95.41v4.546h18.736zm0-22.003v-.439H94.704l2.961 4.546h16.398a6.503 6.503 0 01-.27-1.919 6.383 6.383 0 01.353-2.188zm-14.901 8.905h-4.978c.034.152.084.303.134.438.186.438.472.808.858 1.077l.151.101c.388.236.858.388 1.346.388a2.57 2.57 0 001.497-.489c.505-.37.858-.892.992-1.515zm-.37-1.077l-1.765-2.71-.656-1.011-3.835-5.875h-24l-6.206 9.596h36.462zm-4.474 18.384V41.886a3.577 3.577 0 01-.857-1.161 3.03 3.03 0 01-.319.555 3.597 3.597 0 01-2.91 1.499c-.724 0-1.38-.219-1.934-.573a3.774 3.774 0 01-1.01-.993 2.762 2.762 0 01-.268-.488 3.551 3.551 0 01-3.229 2.054 3.568 3.568 0 01-3.229-2.054 3.553 3.553 0 01-3.23 2.054 3.548 3.548 0 01-2.657-1.196 3.305 3.305 0 01-.572-.858c-.118.252-.27.505-.437.724a3.56 3.56 0 01-2.776 1.33 3.57 3.57 0 01-3.229-2.054 3.539 3.539 0 01-1.715 1.717v14.63h9.821V46.129c0-.286.236-.504.505-.504h7.233c.286 0 .504.218.504.504v3.755a2.019 2.019 0 011.597 1.969c0 .96-.689 1.785-1.597 1.969v3.25h10.309zm-1.614-17.307h-4.978c.084.422.286.809.554 1.112a2.603 2.603 0 001.85.892h.084c.556 0 1.077-.186 1.497-.489.505-.353.875-.892.993-1.515zm-6.442 0h-4.977a2.53 2.53 0 002.488 2.004 2.53 2.53 0 002.489-2.004zm-1.681 12.088c0-.404-.236-.757-.589-.926a.899.899 0 00-.42-.084c-.219 0-.42.067-.589.185-.253.186-.42.489-.42.825 0 .337.167.64.42.825.169.118.37.185.589.185.151 0 .286-.034.42-.084.353-.169.589-.522.589-.926zm-1.598 5.219v-3.283a2.029 2.029 0 01-1.429-1.936c0-.909.604-1.684 1.429-1.936v-3.283h-6.222v10.438h6.222zm-3.179-17.307h-4.979a2.533 2.533 0 002.49 2.004 2.532 2.532 0 002.489-2.004zM75.918 4.546V1.01H40.431v3.536h35.487zm-2.186 23.536V5.555H42.618v23.234a6.73 6.73 0 011.497 4.259 6.762 6.762 0 01-1.497 4.259v.809c.84-.725 1.917-1.179 3.112-1.179h.251V31.65c0-.286.219-.504.505-.504h19.593l1.346-2.071v-1.802H48.79a.495.495 0 01-.504-.505v-4.04h-1.884a.496.496 0 01-.505-.505v-5.556c0-.286.219-.505.505-.505h23.546c.286 0 .505.219.505.505v5.556a.496.496 0 01-.505.505H49.295v3.536H67.93c.286 0 .504.218.504.504v1.314h5.298zm-.286 11.683h-4.979a2.533 2.533 0 002.489 2.004 2.533 2.533 0 002.49-2.004zm-4.002-18.047v-4.545H46.906v4.545h22.538zm-2.456 18.047h-4.979a2.532 2.532 0 002.489 2.004c.169 0 .337-.017.505-.05.37-.067.707-.236 1.009-.439.504-.37.857-.909.976-1.515zm-4.524-3.064l2.959-4.545H46.99v4.545h15.474zm2.539 20.371V42.745a5.018 5.018 0 01-.505.034c-1.95 0-3.548-1.583-3.548-3.518v-.052c0-.1.017-.201.084-.303l.774-1.195H48.32a4.73 4.73 0 012.152 3.973 4.753 4.753 0 01-3.464 4.562v10.826h6.138V46.129c0-.286.235-.504.504-.504h7.233c.286 0 .504.218.504.504v3.772a2.005 2.005 0 011.514 1.952c0 .943-.64 1.734-1.514 1.954v3.265h3.616zm-3.128-5.219a1.004 1.004 0 00-1.009-1.01 1.003 1.003 0 00-1.009 1.01 1.006 1.006 0 001.513.876c.303-.169.505-.506.505-.876zm-1.514 5.219v-3.265a2.008 2.008 0 01-1.514-1.954c0-.943.639-1.734 1.514-1.952v-3.267h-6.222v10.438h6.222zM49.312 41.684c0-1.532-.976-2.845-2.339-3.367a3.398 3.398 0 00-1.009-.218c-.084 0-.167-.017-.251-.017-1.33 0-2.49.724-3.112 1.802a3.569 3.569 0 00-.471 1.783c0 .658.168 1.264.471 1.785.067.118.134.236.218.338l1.632-1.634a1.426 1.426 0 01-.084-.454 1.35 1.35 0 011.346-1.348c.084 0 .167.017.251.017.472.084.842.422 1.009.859.052.151.085.303.085.472 0 .168-.033.32-.085.471a1.337 1.337 0 01-1.009.858c-.084.017-.167.017-.251.017-.152 0-.321-.033-.455-.084l-1.614 1.616a3.524 3.524 0 002.069.673c.084 0 .167 0 .251-.016a3.398 3.398 0 001.009-.218 3.522 3.522 0 002.339-3.335zm-3.331 15.388V46.415h-.251a4.696 4.696 0 01-2.893-.993l-.219.218v11.432h3.363zm-3.01-24.024c0-.69-.117-1.363-.353-1.969a5.439 5.439 0 00-1.009-1.701c-1.044-1.212-2.573-1.987-4.289-1.987a5.65 5.65 0 00-3.785 1.465 6.268 6.268 0 00-1.009 1.195 5.682 5.682 0 00-.857 2.997c0 1.095.32 2.121.857 2.997.286.454.623.859 1.009 1.195a5.574 5.574 0 003.214 1.43v-3.265c-.035 0-.052-.017-.085-.017a2.368 2.368 0 01-1.699-2.256 2.362 2.362 0 012.355-2.356 2.362 2.362 0 012.355 2.356 2.352 2.352 0 01-1.783 2.29v3.266a5.654 5.654 0 003.717-1.953 5.52 5.52 0 001.009-1.718 5.51 5.51 0 00.353-1.969zm-1.362 24.024V46.651l-3.717 3.721v6.7h3.717zm0-12.038v-1.026a4.723 4.723 0 01-.606-2.324c0-.841.218-1.649.606-2.323v-1.027a6.76 6.76 0 01-3.717 1.498v8.924l3.717-3.722zm-3.801-10.64c.504-.201.858-.69.858-1.245a1.35 1.35 0 00-1.346-1.347 1.35 1.35 0 00-1.346 1.347c0 .505.286.942.69 1.178.033.017.05.034.085.034.167.085.369.135.571.135h.051c.151-.017.303-.05.437-.102zm-1.059 22.678V52.56l-3.214-3.215v7.727h3.214zm0-6.128V39.832a6.805 6.805 0 01-3.214-1.127v3.098a4.738 4.738 0 011.464 3.417 4.744 4.744 0 01-1.026 2.946l2.776 2.778zm-2.911-5.724c0-.521-.117-1.01-.318-1.465a3.42 3.42 0 00-1.01-1.313 3.588 3.588 0 00-5.584 4.142c.134.32.303.623.522.876.32.403.723.723 1.177.959a3.55 3.55 0 001.614.387c.774 0 1.481-.253 2.069-.673l-1.614-1.617a1.434 1.434 0 01-.455.085c-.218 0-.437-.052-.622-.152a1.322 1.322 0 01-.606-.64 1.48 1.48 0 01-.117-.539c0-.74.605-1.346 1.345-1.346.741 0 1.345.606 1.345 1.346 0 .169-.033.32-.083.455l1.009 1.01.622.623a3.32 3.32 0 00.388-.673c.217-.454.318-.96.318-1.465zm-1.312 11.852v-7.71a4.699 4.699 0 01-2.27.589c-.201 0-.403-.017-.606-.034l.052 7.155h2.824zm0-16.011v-3.198a6.798 6.798 0 01-2.001-4.815c0-1.885.773-3.586 2.001-4.815v-8.519L10.915 29.85v8.737a6.772 6.772 0 012.674 5.404 6.772 6.772 0 01-2.674 5.404v7.677h2.859v-10.27c0-.201.118-.387.303-.471l14.75-6.263v-5.622L14.48 40.86a.556.556 0 01-.487-.034.498.498 0 01-.235-.421v-5.892c0-.203.117-.37.286-.455l11.94-5.556a1.826 1.826 0 01-.05-.42c0-1.112.908-2.021 2.018-2.021 1.111 0 2.018.909 2.018 2.021 0 1.11-.907 2.02-2.018 2.02-.606 0-1.143-.27-1.514-.69L14.75 34.849v4.782l14.346-6.414a.549.549 0 01.487.033.5.5 0 01.236.421v6.819c.134-.017.286-.017.42-.017.841 0 1.615.218 2.287.588zm-3.532-12.979a1.008 1.008 0 00-2.017-.017v.017a1 1 0 00.488.859.95.95 0 00.521.151c.555 0 1.008-.454 1.008-1.01zm-.301 28.99l-.052-7.407a4.695 4.695 0 01-2.304-1.802l-4.187 1.549v2.508a1.683 1.683 0 011.177 1.599c0 .742-.488 1.398-1.177 1.6v1.785a.491.491 0 01-.034.168h6.577zm-1.969-15.017l-11.941 5.067v3.939l11.084-4.107a4.696 4.696 0 01-.336-1.751c0-1.195.453-2.307 1.193-3.148zm-4.255 11.482a.855.855 0 00-.336-.674.864.864 0 00-.505-.168.863.863 0 00-.504.168.855.855 0 00-.336.674c0 .27.134.521.336.673.134.101.32.168.504.168a.864.864 0 00.505-.168.805.805 0 00.336-.673zm-7.686 3.535h6.375a.491.491 0 01-.034-.168v-1.768a1.684 1.684 0 01-1.178-1.599c0-.741.489-1.398 1.178-1.6v-2.138l-6.358 2.357v4.916h.017zm2.641-38.284c2.439-1.464 3.33-4.562 2.119-7.087l-4.591 2.778-.353.201-4.424 2.66a5.4 5.4 0 003.094 2.071 5.438 5.438 0 004.155-.623zm1.513 53.469a1.463 1.463 0 10-2.927 0 1.463 1.463 0 002.927 0zm-6.542-62.223a1.16 1.16 0 00.37-.859 1.17 1.17 0 00-1.177-1.178c-.656 0-1.178.522-1.178 1.178a1.17 1.17 0 001.178 1.179c.067 0 .135 0 .202-.017.236-.034.437-.151.605-.303zM9.906 57.072v-7.037a6.827 6.827 0 01-2.54.74v6.297h2.54z" fill="#4c5b5c" fill-rule="nonzero"/><path d="M41.037 66.282v-3.014a.708.708 0 01-.522-.691c0-.404.32-.724.724-.724a.723.723 0 01.201 1.415v3.014h1.346v17.256H41.44v3.012a.71.71 0 01.522.692.718.718 0 01-.723.723.72.72 0 01-.202-1.413v-3.014h-1.345V66.282h1.345zm72.437 0v-3.014a.708.708 0 01-.522-.691c0-.404.32-.724.723-.724a.723.723 0 01.202 1.415v3.014h1.346v17.256h-1.346v3.014a.706.706 0 01.522.69.718.718 0 01-.724.723.72.72 0 01-.201-1.413v-3.014h-1.345V66.282h1.345zm-33.756-1.971c2.339 0 3.515 1.313 3.515 3.923v3.923c0 2.003-.604 3.266-1.832 3.805l2.135 9.545h-2.909l-2.001-9.26h-1.851v5.876H75.38v2.93a.707.707 0 01.522.69c0 .404-.32.724-.724.724a.718.718 0 01-.185-1.414v-2.93h-1.278V64.311h6.003zm-56.307-1.329a.706.706 0 01-.689.522.718.718 0 01-.723-.724c0-.404.318-.724.723-.724.336 0 .605.218.689.521h8.106c2.725 0 4.088 1.381 4.088 4.142v5.893c0 1.313-.74 2.121-2.204 2.424v.168c1.682.472 2.523 1.348 2.523 2.644v4.276c0 2.272-1.161 3.417-3.481 3.417h-9.032a.706.706 0 01-.689.522.717.717 0 01-.723-.723c0-.405.318-.725.723-.725.336 0 .605.236.689.539h2.876V74.615h-2.876a.706.706 0 01-.689.522.718.718 0 01-.723-.725c0-.403.318-.723.723-.723.336 0 .605.219.689.522h2.876V62.982h-2.876zm124.07-.405v2.777h-4.524v8.452h4.019v2.779h-4.019v6.144h4.524v1.196h2.909a.706.706 0 01.689-.522c.387 0 .707.319.723.723a.718.718 0 01-.723.725.722.722 0 01-.689-.523h-2.909v1.196h-7.586V64.177h-2.909a.706.706 0 01-.69.521.718.718 0 01-.723-.723.72.72 0 011.413-.203h2.909v-1.195h7.586zM53.297 73.655V62.577h3.062v20.961h-2.322l-4.019-13.031v15h-3.06v-22.93h3.06l3.279 11.078zm35.84-9.344v10.506c0 .892.454 1.346 1.346 1.346h.824c.891 0 1.346-.454 1.346-1.346h-.017V64.311h3.06v10.707c0 2.476-1.093 3.772-3.279 3.906v6.583h-3.062v-6.583c-2.185-.117-3.279-1.43-3.279-3.906V64.311h3.061zm-22.822 0c2.455 0 3.666 1.313 3.683 3.923v17.273h-3.061v-10.37h-3.515v6.969h-3.061V68.234c0-2.61 1.228-3.923 3.667-3.923h2.287zm37.437 15.775l2.489-17.509h3.028l-3.7 22.93h-3.633l-3.7-22.93h3.028l2.488 17.509zm25.817-17.509h3.06v18.182h4.206v2.779h-7.266V62.577zm-98.522 13.94h-1.683v6.213h2.289c.806 0 1.211-.337 1.211-.993v-3.586c0-1.095-.606-1.634-1.817-1.634zm88.212-13.94h3.077v15.707h4.206v2.778h-7.283V62.577zm-88.095 2.779h-1.8v8.383h1.43c1.161 0 1.749-.556 1.749-1.666v-5.051c0-1.11-.47-1.666-1.379-1.666zm47.63 1.733h-2.002v6.549h2.002c.924 0 1.379-.556 1.379-1.667v-3.215c0-1.111-.47-1.667-1.379-1.667zm-13.22 0h-.823c-.892 0-1.346.455-1.346 1.347v3.923h3.514v-3.923c0-.909-.453-1.347-1.345-1.347z" fill="#ff583d" fill-rule="nonzero"/></svg>